<?xml version="1.0" encoding="UTF-8"?>
<svg width="16px" height="16px" viewBox="0 0 16 16" version="1.1" xmlns="http://www.w3.org/2000/svg" xmlns:xlink="http://www.w3.org/1999/xlink">
    <title>暂停</title>
    <g id="页面-1" stroke="none" stroke-width="1" fill="none" fill-rule="evenodd">
        <g id="暂停" fill-rule="nonzero">
            <rect id="矩形" fill="#000000" opacity="0" x="0" y="0" width="16" height="16"></rect>
            <path d="M4.99403805,2.27586497 C4.51719334,2.27586497 4.13062344,2.66243487 4.13062344,3.13927958 L4.13062344,12.8606885 C4.13062344,13.3375332 4.51719334,13.7241031 4.99403805,13.7241031 C5.47088275,13.7241031 5.85745266,13.3375332 5.85745266,12.8606885 L5.85745266,3.13927958 C5.85745266,2.66243487 5.47088273,2.27586497 4.99403805,2.27586497 Z M11.005962,2.27586497 C10.5291173,2.27586497 10.1425473,2.66243487 10.1425473,3.13927958 L10.1425473,12.8606885 C10.1425473,13.3375332 10.5291172,13.7241031 11.005962,13.7241031 C11.4828067,13.7241031 11.8693766,13.3375332 11.8693766,12.8606885 L11.8693766,3.13927958 C11.8693766,2.66243487 11.4828067,2.27586497 11.005962,2.27586497 Z" id="形状" fill="#FFFFFF"></path>
        </g>
    </g>
</svg>